<svg width="12" height="14" viewBox="0 0 12 14" fill="none" xmlns="http://www.w3.org/2000/svg">
<path fill-rule="evenodd" clip-rule="evenodd" d="M6 0.390015C5.40857 0.390015 4.42029 0.611343 3.49029 0.857728C2.53886 1.10829 1.57972 1.40478 1.01572 1.58435C0.779911 1.66023 0.570853 1.79939 0.412562 1.98584C0.25427 2.17228 0.153165 2.39846 0.120862 2.63838C-0.389995 6.37758 0.795432 9.14877 2.23372 10.982C2.84364 11.7663 3.57088 12.4569 4.39114 13.0308C4.722 13.2588 5.02886 13.4334 5.28943 13.5528C5.52943 13.663 5.78743 13.7532 6 13.7532C6.21257 13.7532 6.46971 13.663 6.71057 13.5528C7.0247 13.404 7.32522 13.2294 7.60886 13.0308C8.42913 12.4569 9.15638 11.7663 9.76628 10.982C11.2046 9.14877 12.39 6.37758 11.8791 2.63838C11.8469 2.39834 11.7458 2.17203 11.5875 1.98544C11.4292 1.79885 11.2202 1.65955 10.9843 1.58352C10.1655 1.32194 9.34045 1.07966 8.50971 0.856892C7.57971 0.612178 6.59143 0.390015 6 0.390015ZM6 4.56602C6.30363 4.56558 6.59763 4.66986 6.82992 4.8604C7.0622 5.05093 7.21779 5.31542 7.26912 5.60703C7.32045 5.89863 7.26422 6.19853 7.11037 6.4536C6.95652 6.70867 6.715 6.90246 6.42857 7.00064L6.75857 8.66269C6.77058 8.72314 6.76872 8.78543 6.75312 8.8451C6.73752 8.90476 6.70858 8.96033 6.66836 9.00783C6.62814 9.05532 6.57764 9.09355 6.52048 9.1198C6.46332 9.14604 6.4009 9.15965 6.33771 9.15963H5.66229C5.59917 9.15952 5.53685 9.14583 5.4798 9.11953C5.42274 9.09323 5.37235 9.05498 5.33222 9.0075C5.2921 8.96003 5.26323 8.9045 5.24768 8.84489C5.23214 8.78529 5.23029 8.72307 5.24229 8.66269L5.57143 7.00064C5.285 6.90246 5.04348 6.70867 4.88963 6.4536C4.73578 6.19853 4.67955 5.89863 4.73088 5.60703C4.78221 5.31542 4.9378 5.05093 5.17008 4.8604C5.40237 4.66986 5.69637 4.56558 6 4.56602Z" fill="#EDEDED"/>
</svg>
